<svg width="2751" height="1637" xmlns="http://www.w3.org/2000/svg" xmlns:xlink="http://www.w3.org/1999/xlink" xml:space="preserve" overflow="hidden"><g transform="translate(-892 -753)"><path d="M0.00258059-2.29167 551.719-1.67039 551.714 2.91294-0.00258059 2.29167ZM547.149-13.1339 574.633 0.64708 547.118 14.3661Z" transform="matrix(1 0 0 -1 1432.5 1485.15)"/><path d="M1079.5 1380C1079.5 1367.02 1089.35 1356.5 1101.5 1356.5 1113.65 1356.5 1123.5 1367.02 1123.5 1380 1123.5 1392.98 1113.65 1403.5 1101.5 1403.5 1089.35 1403.5 1079.5 1392.98 1079.5 1380Z" stroke="#000000" stroke-width="3.4375" stroke-linejoin="round" stroke-miterlimit="10" fill="none" fill-rule="evenodd"/><path d="M1090.5 1578.5C1090.5 1565.8 1100.35 1555.5 1112.5 1555.5 1124.65 1555.5 1134.5 1565.8 1134.5 1578.5 1134.5 1591.2 1124.65 1601.5 1112.5 1601.5 1100.35 1601.5 1090.5 1591.2 1090.5 1578.5Z" stroke="#000000" stroke-width="3.4375" stroke-linejoin="round" stroke-miterlimit="10" fill="none" fill-rule="evenodd"/><path d="M1170.5 1475.5C1170.5 1462.8 1180.35 1452.5 1192.5 1452.5 1204.65 1452.5 1214.5 1462.8 1214.5 1475.5 1214.5 1488.2 1204.65 1498.5 1192.5 1498.5 1180.35 1498.5 1170.5 1488.2 1170.5 1475.5Z" stroke="#000000" stroke-width="3.4375" stroke-linejoin="round" stroke-miterlimit="10" fill="none" fill-rule="evenodd"/><path d="M1328.5 1399.5C1328.5 1386.8 1338.35 1376.5 1350.5 1376.5 1362.65 1376.5 1372.5 1386.8 1372.5 1399.5 1372.5 1412.2 1362.65 1422.5 1350.5 1422.5 1338.35 1422.5 1328.5 1412.2 1328.5 1399.5Z" stroke="#000000" stroke-width="3.4375" stroke-linejoin="round" stroke-miterlimit="10" fill="none" fill-rule="evenodd"/><path d="M1245.5 1632.5C1245.5 1619.8 1255.35 1609.5 1267.5 1609.5 1279.65 1609.5 1289.5 1619.8 1289.5 1632.5 1289.5 1645.2 1279.65 1655.5 1267.5 1655.5 1255.35 1655.5 1245.5 1645.2 1245.5 1632.5Z" stroke="#000000" stroke-width="3.4375" stroke-linejoin="round" stroke-miterlimit="10" fill="none" fill-rule="evenodd"/><path d="M1245.5 1339C1245.5 1326.02 1255.35 1315.5 1267.5 1315.5 1279.65 1315.5 1289.5 1326.02 1289.5 1339 1289.5 1351.98 1279.65 1362.5 1267.5 1362.5 1255.35 1362.5 1245.5 1351.98 1245.5 1339Z" stroke="#000000" stroke-width="3.4375" stroke-linejoin="round" stroke-miterlimit="10" fill="none" fill-rule="evenodd"/><path d="M1328.5 1576.5C1328.5 1563.8 1338.35 1553.5 1350.5 1553.5 1362.65 1553.5 1372.5 1563.8 1372.5 1576.5 1372.5 1589.2 1362.65 1599.5 1350.5 1599.5 1338.35 1599.5 1328.5 1589.2 1328.5 1576.5Z" stroke="#000000" stroke-width="3.4375" stroke-linejoin="round" stroke-miterlimit="10" fill="none" fill-rule="evenodd"/><rect x="1006.5" y="1262.5" width="426" height="445" stroke="#000000" stroke-width="3.4375" stroke-linejoin="round" stroke-miterlimit="10" fill="none"/><path d="M1028.5 1481.5C1028.5 1468.8 1038.35 1458.5 1050.5 1458.5 1062.65 1458.5 1072.5 1468.8 1072.5 1481.5 1072.5 1494.2 1062.65 1504.5 1050.5 1504.5 1038.35 1504.5 1028.5 1494.2 1028.5 1481.5Z" stroke="#000000" stroke-width="3.4375" stroke-linejoin="round" stroke-miterlimit="10" fill="none" fill-rule="evenodd"/><path d="M1245.5 1511.5C1245.5 1498.8 1255.35 1488.5 1267.5 1488.5 1279.65 1488.5 1289.5 1498.8 1289.5 1511.5 1289.5 1524.2 1279.65 1534.5 1267.5 1534.5 1255.35 1534.5 1245.5 1524.2 1245.5 1511.5Z" stroke="#000000" stroke-width="3.4375" stroke-linejoin="round" stroke-miterlimit="10" fill="none" fill-rule="evenodd"/><text font-family="Times New Roman,Times New Roman_MSFontService,sans-serif" font-weight="400" font-size="64" transform="matrix(1 0 0 1 1022.1 1183)">Product space</text><path d="M2080.5 1379.5C2080.5 1366.8 2090.13 1356.5 2102 1356.5 2113.87 1356.5 2123.5 1366.8 2123.5 1379.5 2123.5 1392.2 2113.87 1402.5 2102 1402.5 2090.13 1402.5 2080.5 1392.2 2080.5 1379.5Z" stroke="#000000" stroke-width="3.4375" stroke-linejoin="round" stroke-miterlimit="10" fill="none" fill-rule="evenodd"/><path d="M2091.5 1577.5C2091.5 1564.8 2101.35 1554.5 2113.5 1554.5 2125.65 1554.5 2135.5 1564.8 2135.5 1577.5 2135.5 1590.2 2125.65 1600.5 2113.5 1600.5 2101.35 1600.5 2091.5 1590.2 2091.5 1577.5Z" stroke="#000000" stroke-width="3.4375" stroke-linejoin="round" stroke-miterlimit="10" fill="none" fill-rule="evenodd"/><path d="M2170.5 1558C2170.5 1545.02 2180.35 1534.5 2192.5 1534.5 2204.65 1534.5 2214.5 1545.02 2214.5 1558 2214.5 1570.98 2204.65 1581.5 2192.5 1581.5 2180.35 1581.5 2170.5 1570.98 2170.5 1558Z" stroke="#000000" stroke-width="3.4375" stroke-linejoin="round" stroke-miterlimit="10" fill="none" fill-rule="evenodd"/><path d="M2329.5 1399.5C2329.5 1386.8 2339.13 1376.5 2351 1376.5 2362.87 1376.5 2372.5 1386.8 2372.5 1399.5 2372.5 1412.2 2362.87 1422.5 2351 1422.5 2339.13 1422.5 2329.5 1412.2 2329.5 1399.5Z" stroke="#000000" stroke-width="3.4375" stroke-linejoin="round" stroke-miterlimit="10" fill="none" fill-rule="evenodd"/><path d="M2245.5 1631.5C2245.5 1618.8 2255.35 1608.5 2267.5 1608.5 2279.65 1608.5 2289.5 1618.8 2289.5 1631.5 2289.5 1644.2 2279.65 1654.5 2267.5 1654.5 2255.35 1654.5 2245.5 1644.2 2245.5 1631.5Z" stroke="#000000" stroke-width="3.4375" stroke-linejoin="round" stroke-miterlimit="10" fill="none" fill-rule="evenodd"/><path d="M2245.5 1338.5C2245.5 1325.8 2255.35 1315.5 2267.5 1315.5 2279.65 1315.5 2289.5 1325.8 2289.5 1338.5 2289.5 1351.2 2279.65 1361.5 2267.5 1361.5 2255.35 1361.5 2245.5 1351.2 2245.5 1338.5Z" stroke="#000000" stroke-width="3.4375" stroke-linejoin="round" stroke-miterlimit="10" fill="none" fill-rule="evenodd"/><path d="M2329.5 1576.5C2329.5 1563.8 2339.13 1553.5 2351 1553.5 2362.87 1553.5 2372.5 1563.8 2372.5 1576.5 2372.5 1589.2 2362.87 1599.5 2351 1599.5 2339.13 1599.5 2329.5 1589.2 2329.5 1576.5Z" stroke="#000000" stroke-width="3.4375" stroke-linejoin="round" stroke-miterlimit="10" fill="none" fill-rule="evenodd"/><rect x="2007.5" y="1262.5" width="426" height="445" stroke="#000000" stroke-width="3.4375" stroke-linejoin="round" stroke-miterlimit="10" fill="none"/><path d="M2029.5 1481C2029.5 1468.02 2039.35 1457.5 2051.5 1457.5 2063.65 1457.5 2073.5 1468.02 2073.5 1481 2073.5 1493.98 2063.65 1504.5 2051.5 1504.5 2039.35 1504.5 2029.5 1493.98 2029.5 1481Z" stroke="#000000" stroke-width="3.4375" stroke-linejoin="round" stroke-miterlimit="10" fill="none" fill-rule="evenodd"/><path d="M2245.5 1487.5C2245.5 1474.8 2255.35 1464.5 2267.5 1464.5 2279.65 1464.5 2289.5 1474.8 2289.5 1487.5 2289.5 1500.2 2279.65 1510.5 2267.5 1510.5 2255.35 1510.5 2245.5 1500.2 2245.5 1487.5Z" stroke="#000000" stroke-width="3.4375" stroke-linejoin="round" stroke-miterlimit="10" fill="none" fill-rule="evenodd"/><path d="M1.99667-1.12475 25.9026 41.3134 21.9093 43.5629-1.99667 1.12475ZM33.6365 31.6963 35.1534 62.4048 9.67646 45.1933Z" transform="matrix(1 0 0 -1 2066.5 1464.9)"/><path d="M0.165708-2.28567 19.2678-0.900787 18.9364 3.67055-0.165708 2.28567ZM15.525-12.6605 41.9588 3.04196 13.5365 14.7675Z" transform="matrix(1 0 0 -1 2135.5 1577.54)"/><path d="M2068.27 1496.05 2100.26 1535.14 2096.71 1538.05 2064.73 1498.95ZM2106.22 1524.34 2113 1554.33 2084.94 1541.75Z"/><path d="M0.725788-2.1737 100.973 31.2984 99.5213 35.6458-0.725788 2.1737ZM100.254 18.9783 121.984 40.73 91.545 45.0627Z" transform="matrix(1 0 0 -1 2123.5 1379.23)"/><path d="M1.33801-1.8605 50.3992 33.4225 47.7232 37.1435-1.33801 1.8605ZM53.3682 21.444 67.6662 48.6631 37.3122 43.77Z" transform="matrix(1 0 0 -1 2283.5 1471.16)"/><path d="M2284.58 1352.48 2316.54 1369.6 2314.38 1373.64 2282.42 1356.52ZM2317.91 1357.34 2335.66 1382.44 2304.93 1381.58Z"/><path d="M1.8834-1.30557 26.5023 34.2093 22.7355 36.8205-1.8834 1.30557ZM33.3082 23.9147 37.6746 54.3489 10.7073 39.5815Z" transform="matrix(1 0 0 -1 2214.5 1557.85)"/><path d="M2210.06 1572.82 2237.37 1598.19 2234.25 1601.55 2206.94 1576.18ZM2241.81 1586.68 2252.6 1615.47 2223.09 1606.83Z"/><path d="M2285.18 1501.94 2321.73 1541.21 2318.37 1544.33 2281.82 1505.06ZM2326.99 1530.05 2335.66 1559.54 2306.86 1548.78Z"/><path d="M1999.5 1761.21 2417.64 1761.21 2417.64 1765.79 1999.5 1765.79ZM2413.06 1749.75 2440.56 1763.5 2413.06 1777.25Z"/><text font-family="Times New Roman,Times New Roman_MSFontService,sans-serif" font-weight="400" font-size="64" transform="matrix(1 0 0 1 2314.68 1848)">Time</text><text font-family="Times New Roman,Times New Roman_MSFontService,sans-serif" font-weight="400" font-size="64" transform="matrix(1 0 0 1 2038.55 1065)">Technological </text><text font-family="Times New Roman,Times New Roman_MSFontService,sans-serif" font-weight="400" font-size="64" transform="matrix(1 0 0 1 2054.07 1142)">phylogenetic </text><text font-family="Times New Roman,Times New Roman_MSFontService,sans-serif" font-weight="400" font-size="64" transform="matrix(1 0 0 1 2114.8 1219)">network</text><path d="M2124.83 1377.64 2234.6 1456.1 2231.93 1459.83 2122.17 1381.36ZM2237.53 1444.11 2251.91 1471.29 2221.54 1466.48Z"/><path d="M3172.5 1022.5C3172.5 1009.8 3182.35 999.5 3194.5 999.5 3206.65 999.5 3216.5 1009.8 3216.5 1022.5 3216.5 1035.2 3206.65 1045.5 3194.5 1045.5 3182.35 1045.5 3172.5 1035.2 3172.5 1022.5Z" stroke="#172C51" stroke-width="4.58333" stroke-miterlimit="8" fill="#4472C4" fill-rule="evenodd"/><path d="M3183.5 1220.5C3183.5 1207.8 3193.35 1197.5 3205.5 1197.5 3217.65 1197.5 3227.5 1207.8 3227.5 1220.5 3227.5 1233.2 3217.65 1243.5 3205.5 1243.5 3193.35 1243.5 3183.5 1233.2 3183.5 1220.5Z" stroke="#172C51" stroke-width="4.58333" stroke-miterlimit="8" fill="#4472C4" fill-rule="evenodd"/><path d="M3263.5 1201.5C3263.5 1188.8 3273.13 1178.5 3285 1178.5 3296.87 1178.5 3306.5 1188.8 3306.5 1201.5 3306.5 1214.2 3296.87 1224.5 3285 1224.5 3273.13 1224.5 3263.5 1214.2 3263.5 1201.5Z" stroke="#6C4F00" stroke-width="4.58333" stroke-miterlimit="8" fill="#FFC000" fill-rule="evenodd"/><path d="M3421.5 1042.5C3421.5 1029.8 3431.35 1019.5 3443.5 1019.5 3455.65 1019.5 3465.5 1029.8 3465.5 1042.5 3465.5 1055.2 3455.65 1065.5 3443.5 1065.5 3431.35 1065.5 3421.5 1055.2 3421.5 1042.5Z" stroke="#2B4719" stroke-width="4.58333" stroke-miterlimit="8" fill="#70AD47" fill-rule="evenodd"/><path d="M3338.5 1275C3338.5 1262.02 3348.35 1251.5 3360.5 1251.5 3372.65 1251.5 3382.5 1262.02 3382.5 1275 3382.5 1287.98 3372.65 1298.5 3360.5 1298.5 3348.35 1298.5 3338.5 1287.98 3338.5 1275Z" stroke="#2B4719" stroke-width="4.58333" stroke-miterlimit="8" fill="#70AD47" fill-rule="evenodd"/><path d="M3338.5 981.5C3338.5 968.797 3348.35 958.5 3360.5 958.5 3372.65 958.5 3382.5 968.797 3382.5 981.5 3382.5 994.202 3372.65 1004.5 3360.5 1004.5 3348.35 1004.5 3338.5 994.202 3338.5 981.5Z" stroke="#6C4F00" stroke-width="4.58333" stroke-miterlimit="8" fill="#FFC000" fill-rule="evenodd"/><path d="M3421.5 1219.5C3421.5 1206.8 3431.35 1196.5 3443.5 1196.5 3455.65 1196.5 3465.5 1206.8 3465.5 1219.5 3465.5 1232.2 3455.65 1242.5 3443.5 1242.5 3431.35 1242.5 3421.5 1232.2 3421.5 1219.5Z" stroke="#2B4719" stroke-width="4.58333" stroke-miterlimit="8" fill="#70AD47" fill-rule="evenodd"/><rect x="3099.5" y="905.5" width="426" height="445" stroke="#000000" stroke-width="3.4375" stroke-linejoin="round" stroke-miterlimit="10" fill="none"/><path d="M3121.5 1124.5C3121.5 1111.8 3131.35 1101.5 3143.5 1101.5 3155.65 1101.5 3165.5 1111.8 3165.5 1124.5 3165.5 1137.2 3155.65 1147.5 3143.5 1147.5 3131.35 1147.5 3121.5 1137.2 3121.5 1124.5Z" stroke="#64310F" stroke-width="4.58333" stroke-miterlimit="8" fill="#ED7D31" fill-rule="evenodd"/><path d="M3338.5 1130.5C3338.5 1117.8 3348.35 1107.5 3360.5 1107.5 3372.65 1107.5 3382.5 1117.8 3382.5 1130.5 3382.5 1143.2 3372.65 1153.5 3360.5 1153.5 3348.35 1153.5 3338.5 1143.2 3338.5 1130.5Z" stroke="#172C51" stroke-width="4.58333" stroke-miterlimit="8" fill="#4472C4" fill-rule="evenodd"/><path d="M1.99667-1.12475 25.9026 41.3134 21.9093 43.5629-1.99667 1.12475ZM33.6365 31.6963 35.1534 62.4048 9.67646 45.1933Z" transform="matrix(1 0 0 -1 3159.5 1107.9)"/><path d="M0.165708-2.28567 19.2678-0.900787 18.9364 3.67055-0.165708 2.28567ZM15.525-12.6605 41.9588 3.04196 13.5365 14.7675Z" transform="matrix(1 0 0 -1 3227.5 1220.54)"/><path d="M3161.27 1139.05 3193.26 1178.14 3189.71 1181.05 3157.73 1141.95ZM3199.22 1167.34 3205.99 1197.33 3177.94 1184.75Z"/><path d="M0.725788-2.1737 100.973 31.2984 99.5213 35.6458-0.725788 2.1737ZM100.254 18.9783 121.984 40.73 91.545 45.0627Z" transform="matrix(1 0 0 -1 3216.5 1022.23)"/><path d="M1.33801-1.8605 50.3992 33.4225 47.7232 37.1435-1.33801 1.8605ZM53.3682 21.444 67.6662 48.6631 37.3122 43.77Z" transform="matrix(1 0 0 -1 3375.5 1114.16)"/><path d="M3376.58 996.48 3408.54 1013.6 3406.38 1017.64 3374.42 1000.52ZM3409.91 1001.34 3427.66 1026.44 3396.93 1025.58Z"/><path d="M1.8834-1.30557 26.5023 34.2093 22.7355 36.8205-1.8834 1.30557ZM33.3082 23.9147 37.6746 54.3489 10.7073 39.5815Z" transform="matrix(1 0 0 -1 3306.5 1200.85)"/><path d="M3302.06 1215.82 3329.37 1241.19 3326.25 1244.55 3298.94 1219.18ZM3333.81 1229.68 3344.6 1258.47 3315.09 1249.83Z"/><path d="M3377.18 1144.94 3413.73 1184.21 3410.37 1187.33 3373.82 1148.06ZM3418.99 1173.05 3427.66 1202.54 3398.86 1191.78Z"/><path d="M3092.5 1405.21 3510.64 1405.21 3510.64 1409.79 3092.5 1409.79ZM3506.06 1393.75 3533.56 1407.5 3506.06 1421.25Z"/><text font-family="Times New Roman,Times New Roman_MSFontService,sans-serif" font-weight="400" font-size="64" transform="matrix(1 0 0 1 3406.98 1491)">Time</text><text font-family="Times New Roman,Times New Roman_MSFontService,sans-serif" font-weight="400" font-size="64" transform="matrix(1 0 0 1 3134.43 835)">Pattern of past</text><path d="M3217.83 1020.64 3327.6 1099.1 3324.93 1102.83 3215.17 1024.36ZM3330.53 1087.11 3344.91 1114.29 3314.54 1109.48Z"/><text font-family="Times New Roman,Times New Roman_MSFontService,sans-serif" font-weight="400" font-size="64" transform="matrix(1 0 0 1 3471.54 2336)">Time</text><text font-family="Times New Roman,Times New Roman_MSFontService,sans-serif" font-weight="400" font-size="64" transform="matrix(1 0 0 1 3154.69 1707)">Pattern of future</text><path d="M3163.5 1874C3163.5 1861.02 3172.23 1850.5 3183 1850.5 3193.77 1850.5 3202.5 1861.02 3202.5 1874 3202.5 1886.98 3193.77 1897.5 3183 1897.5 3172.23 1897.5 3163.5 1886.98 3163.5 1874Z" stroke="#172C51" stroke-width="4.58333" stroke-miterlimit="8" fill="#4472C4" fill-rule="evenodd"/><path d="M3173.5 2072.5C3173.5 2059.8 3182.23 2049.5 3193 2049.5 3203.77 2049.5 3212.5 2059.8 3212.5 2072.5 3212.5 2085.2 3203.77 2095.5 3193 2095.5 3182.23 2095.5 3173.5 2085.2 3173.5 2072.5Z" stroke="#172C51" stroke-width="4.58333" stroke-miterlimit="8" fill="#4472C4" fill-rule="evenodd"/><path d="M3243.5 2052.5C3243.5 2039.8 3252.23 2029.5 3263 2029.5 3273.77 2029.5 3282.5 2039.8 3282.5 2052.5 3282.5 2065.2 3273.77 2075.5 3263 2075.5 3252.23 2075.5 3243.5 2065.2 3243.5 2052.5Z" stroke="#6C4F00" stroke-width="4.58333" stroke-miterlimit="8" fill="#FFC000" fill-rule="evenodd"/><path d="M3382.5 1894C3382.5 1881.02 3391.23 1870.5 3402 1870.5 3412.77 1870.5 3421.5 1881.02 3421.5 1894 3421.5 1906.98 3412.77 1917.5 3402 1917.5 3391.23 1917.5 3382.5 1906.98 3382.5 1894Z" stroke="#2B4719" stroke-width="4.58333" stroke-miterlimit="8" fill="#70AD47" fill-rule="evenodd"/><path d="M3309.5 2126.5C3309.5 2113.8 3318.23 2103.5 3329 2103.5 3339.77 2103.5 3348.5 2113.8 3348.5 2126.5 3348.5 2139.2 3339.77 2149.5 3329 2149.5 3318.23 2149.5 3309.5 2139.2 3309.5 2126.5Z" stroke="#2B4719" stroke-width="4.58333" stroke-miterlimit="8" fill="#70AD47" fill-rule="evenodd"/><path d="M3309.5 1833.5C3309.5 1820.8 3318.23 1810.5 3329 1810.5 3339.77 1810.5 3348.5 1820.8 3348.5 1833.5 3348.5 1846.2 3339.77 1856.5 3329 1856.5 3318.23 1856.5 3309.5 1846.2 3309.5 1833.5Z" stroke="#6C4F00" stroke-width="4.58333" stroke-miterlimit="8" fill="#FFC000" fill-rule="evenodd"/><path d="M3382.5 2071C3382.5 2058.02 3391.23 2047.5 3402 2047.5 3412.77 2047.5 3421.5 2058.02 3421.5 2071 3421.5 2083.98 3412.77 2094.5 3402 2094.5 3391.23 2094.5 3382.5 2083.98 3382.5 2071Z" stroke="#2B4719" stroke-width="4.58333" stroke-miterlimit="8" fill="#70AD47" fill-rule="evenodd"/><rect x="3099.5" y="1756.5" width="501" height="445" stroke="#000000" stroke-width="3.4375" stroke-linejoin="round" stroke-miterlimit="10" fill="none"/><path d="M3119.5 1976C3119.5 1963.02 3128.01 1952.5 3138.5 1952.5 3148.99 1952.5 3157.5 1963.02 3157.5 1976 3157.5 1988.98 3148.99 1999.5 3138.5 1999.5 3128.01 1999.5 3119.5 1988.98 3119.5 1976Z" stroke="#64310F" stroke-width="4.58333" stroke-miterlimit="8" fill="#ED7D31" fill-rule="evenodd"/><path d="M3309.5 1982C3309.5 1969.02 3318.23 1958.5 3329 1958.5 3339.77 1958.5 3348.5 1969.02 3348.5 1982 3348.5 1994.98 3339.77 2005.5 3329 2005.5 3318.23 2005.5 3309.5 1994.98 3309.5 1982Z" stroke="#172C51" stroke-width="4.58333" stroke-miterlimit="8" fill="#4472C4" fill-rule="evenodd"/><path d="M2.05295-1.0184 22.8259 40.8569 18.72 42.8937-2.05295 1.0184ZM31.0539 31.659 30.957 62.4048 6.41849 43.8798Z" transform="matrix(1 0 0 -1 3152.5 1959.9)"/><path d="M0.188029-2.28394 14.2986-1.12227 13.9225 3.44561-0.188029 2.28394ZM10.6709-12.918 36.95 3.04196 8.41452 14.4893Z" transform="matrix(1 0 0 -1 3212.5 2072.54)"/><path d="M3154.36 1991.16 3181.91 2029.4 3178.19 2032.08 3150.64 1993.84ZM3188.53 2018.98 3193.44 2049.33 3166.21 2035.06Z"/><path d="M0.812466-2.14281 86.8061 30.4625 85.1812 34.7481-0.812466 2.14281ZM86.5829 18.1235 107.422 40.73 76.8333 43.8372Z" transform="matrix(1 0 0 -1 3202.5 1874.23)"/><path d="M1.44955-1.77498 43.2878 32.3926 40.3887 35.9426-1.44955 1.77498ZM46.9856 20.6186 59.588 48.6631 29.591 41.9183Z" transform="matrix(1 0 0 -1 3342.5 1966.16)"/><path d="M3343.69 1847.54 3370.05 1863.57 3367.67 1867.49 3341.31 1851.46ZM3372.09 1851.4 3388.44 1877.44 3357.79 1874.9Z"/><path d="M1.95601-1.19404 23.1928 33.5948 19.2807 35.9828-1.95601 1.19404ZM30.5847 23.7125 33.1772 54.3489 7.11257 38.041Z" transform="matrix(1 0 0 -1 3282.5 2052.85)"/><path d="M3278.16 2067.92 3301.23 2092.26 3297.91 2095.42 3274.84 2071.08ZM3306.4 2081.05 3315.33 2110.47 3286.44 2099.97Z"/><path d="M3344.27 1997.05 3375.68 2035.37 3372.14 2038.27 3340.73 1999.95ZM3381.64 2024.56 3388.44 2054.54 3360.37 2041.99Z"/><path d="M3092.5 2256.21 3577.68 2256.21 3577.68 2260.79 3092.5 2260.79ZM3573.1 2244.75 3600.6 2258.5 3573.1 2272.25Z"/><path d="M3203.94 1871.72 3299.23 1949.07 3296.34 1952.63 3201.06 1875.28ZM3302.89 1937.28 3315.58 1965.29 3285.56 1958.63Z"/><path d="M3490.5 1859.5C3490.5 1846.8 3500.35 1836.5 3512.5 1836.5 3524.65 1836.5 3534.5 1846.8 3534.5 1859.5 3534.5 1872.2 3524.65 1882.5 3512.5 1882.5 3500.35 1882.5 3490.5 1872.2 3490.5 1859.5Z" stroke="#6C4F00" stroke-width="4.58333" stroke-miterlimit="8" stroke-dasharray="4.58333 4.58333" fill="#FFC000" fill-rule="evenodd"/><path d="M3494.5 1986C3494.5 1973.02 3504.35 1962.5 3516.5 1962.5 3528.65 1962.5 3538.5 1973.02 3538.5 1986 3538.5 1998.98 3528.65 2009.5 3516.5 2009.5 3504.35 2009.5 3494.5 1998.98 3494.5 1986Z" stroke="#6C4F00" stroke-width="4.58333" stroke-miterlimit="8" stroke-dasharray="4.58333 4.58333" fill="#FFC000" fill-rule="evenodd"/><path d="M3494.5 2106.5C3494.5 2093.8 3504.35 2083.5 3516.5 2083.5 3528.65 2083.5 3538.5 2093.8 3538.5 2106.5 3538.5 2119.2 3528.65 2129.5 3516.5 2129.5 3504.35 2129.5 3494.5 2119.2 3494.5 2106.5Z" stroke="#6C4F00" stroke-width="4.58333" stroke-miterlimit="8" stroke-dasharray="4.58333 4.58333" fill="#FFC000" fill-rule="evenodd"/><path d="M1.02241-2.05096 5.12432-0.0061461 3.07951 4.09577-1.02241 2.05096ZM9.22623 2.03866 13.3281 4.08348 11.2833 8.18539 7.18142 6.14058ZM17.4301 6.12829 21.532 8.1731 19.4872 12.275 15.3852 10.2302ZM25.6339 10.2179 29.7358 12.2627 27.691 16.3646 23.5891 14.3198ZM33.8377 14.3075 37.9396 16.3523 35.8948 20.4543 31.7929 18.4094ZM42.0415 18.3972 46.1435 20.442 44.0986 24.5439 39.9967 22.4991ZM50.4101 9.76575 68.8871 34.3404 38.1412 34.3772Z" transform="matrix(1 0 0 -1 3421.5 1893.84)"/><path d="M1.50367-1.72937 4.96241 1.27797 1.95507 4.73671-1.50367 1.72937ZM8.42115 4.2853 11.8799 7.29264 8.87255 10.7514 5.41381 7.74404ZM15.3386 10.3 18.7974 13.3073 15.79 16.7661 12.3313 13.7587ZM22.2561 16.3146 25.7148 19.322 22.7075 22.7807 19.2488 19.7734ZM29.1736 22.3293 32.6323 25.3367 29.625 28.7954 26.1662 25.7881ZM36.0911 28.344 39.5498 31.3513 36.5425 34.8101 33.0837 31.8027ZM43.0085 34.3587 46.4673 37.366 43.4599 40.8247 40.0012 37.8174ZM49.926 40.3733 53.3848 43.3807 50.3774 46.8394 46.9187 43.8321ZM56.8435 46.388 60.3022 49.3953 57.2949 52.8541 53.8362 49.8467ZM67.0592 40.0865 78.7897 68.5068 49.0152 60.839Z" transform="matrix(1 0 0 -1 3415.5 2054.01)"/><path d="M3422.51 2068.44 3426.62 2070.46 3424.61 2074.57 3420.49 2072.56ZM3430.74 2072.48 3434.86 2074.49 3432.84 2078.61 3428.72 2076.59ZM3438.97 2076.51 3443.09 2078.53 3441.07 2082.64 3436.95 2080.63ZM3447.2 2080.54 3451.32 2082.56 3449.3 2086.68 3445.18 2084.66ZM3455.43 2084.58 3459.55 2086.6 3457.53 2090.71 3453.42 2088.69ZM3463.66 2088.61 3467.78 2090.63 3465.76 2094.75 3461.65 2092.73ZM3471.9 2092.65 3475.06 2094.2 3473.05 2098.32 3469.88 2096.76ZM3475.99 2081.89 3494.63 2106.34 3463.89 2106.59Z"/><path d="M1.08167-2.02033 647.25 343.933 645.086 347.974-1.08167 2.02033ZM648.619 331.669 666.373 356.771 635.639 355.913Z" transform="matrix(1 0 0 -1 2433.5 1484.27)"/><path d="M2434.87 1482.66 3082.84 1963.7 3080.11 1967.38 2432.13 1486.34ZM3085.99 1951.77 3099.87 1979.21 3069.6 1973.85Z"/><text font-family="Times New Roman,Times New Roman_MSFontService,sans-serif" font-weight="400" font-size="64" transform="matrix(1 0 0 1 1552.03 1447)">Construction</text><text font-family="Times New Roman,Times New Roman_MSFontService,sans-serif" font-weight="400" font-size="64" transform="matrix(1 0 0 1 2667.98 1214)">Analysis</text><text font-family="Times New Roman,Times New Roman_MSFontService,sans-serif" font-weight="400" font-size="64" transform="matrix(1 0 0 1 2630.74 1891)">Prediction</text><text font-family="Times New Roman,Times New Roman_MSFontService,sans-serif" font-weight="400" font-size="64" transform="matrix(1 0 0 1 1810.88 2330)">Conceptual framework</text></g></svg>